<svg width="108" height="108" viewBox="0 0 108 108" fill="none" xmlns="http://www.w3.org/2000/svg">
<path d="M0 12.0007C0 5.37329 5.3725 0 11.9999 0C39.7564 0 67.5863 0 95.9993 0C102.627 0 108 5.3725 108 11.9999C108 39.7564 108 67.5863 108 95.9993C108 102.627 102.628 108 96.0001 108C68.2436 108 40.4137 108 12.0007 108C5.37329 108 0 102.628 0 96.0001C0 68.2436 0 40.4137 0 12.0007Z" fill="white"/>
<path d="M25.3125 59.0625C44.2463 59.0625 63.18 59.0625 82.6875 59.0625C82.6875 62.9606 82.6875 66.8587 82.6875 70.875C63.7537 70.875 44.82 70.875 25.3125 70.875C25.3125 66.9769 25.3125 63.0788 25.3125 59.0625Z" fill="#FD5B0A"/>
<path d="M47.25 40.125C58.9444 40.125 70.6388 40.125 82.6875 40.125C82.6875 44.0231 82.6875 47.9212 82.6875 51.9375C70.9931 51.9375 59.2987 51.9375 47.25 51.9375C47.25 48.0394 47.25 44.1413 47.25 40.125Z" fill="#FD5B0A"/>
</svg>
