<svg xmlns="http://www.w3.org/2000/svg" width="450" height="254" fill="none"><path fill="url(#a)" fill-opacity=".3" fill-rule="evenodd" d="M.506 45.113H450v-.506H.506z" clip-rule="evenodd"/><path fill="url(#b)" fill-opacity=".3" fill-rule="evenodd" d="M205.546 253.529V0h-.506v253.529z" clip-rule="evenodd"/><path fill="url(#c)" fill-opacity=".3" fill-rule="evenodd" d="M.506 97.216H450v-.505H.506z" clip-rule="evenodd"/><path fill="url(#d)" fill-opacity=".3" fill-rule="evenodd" d="M256.806 253.529V0h-.506v253.529z" clip-rule="evenodd"/><path fill="url(#e)" fill-opacity=".3" fill-rule="evenodd" d="M.506 253.529V0H0v253.529z" clip-rule="evenodd"/><path fill="url(#f)" fill-opacity=".3" fill-rule="evenodd" d="M.506 149.321H450v-.506H.506z" clip-rule="evenodd"/><path fill="url(#g)" fill-opacity=".3" fill-rule="evenodd" d="M308.066 253.529V0h-.506v253.529z" clip-rule="evenodd"/><path fill="url(#h)" fill-opacity=".3" fill-rule="evenodd" d="M51.766 253.529V0h-.506v253.529z" clip-rule="evenodd"/><path fill="url(#i)" fill-opacity=".3" fill-rule="evenodd" d="M.506 201.424H450v-.506H.506z" clip-rule="evenodd"/><path fill="url(#j)" fill-opacity=".3" fill-rule="evenodd" d="M359.326 253.529V0h-.506v253.529z" clip-rule="evenodd"/><path fill="url(#k)" fill-opacity=".3" fill-rule="evenodd" d="M103.026 253.529V0h-.506v253.529z" clip-rule="evenodd"/><path fill="url(#l)" fill-opacity=".3" fill-rule="evenodd" d="M410.586 253.529V0h-.506v253.529z" clip-rule="evenodd"/><path fill="url(#m)" fill-opacity=".3" fill-rule="evenodd" d="M154.286 253.529V0h-.506v253.529z" clip-rule="evenodd"/><path fill="#B2B2B2" fill-opacity=".08" d="M358.821 45.114h-50.754v51.598h50.754zM307.559 97.216h-50.756v51.6h50.756z"/><defs><linearGradient id="a" x1="277.872" x2="194.87" y1="0" y2="235.867" gradientUnits="userSpaceOnUse"><stop stop-color="#B2B2B2"/><stop offset="1" stop-color="#B2B2B2" stop-opacity="0"/></linearGradient><linearGradient id="b" x1="277.872" x2="194.87" y1="0" y2="235.867" gradientUnits="userSpaceOnUse"><stop stop-color="#B2B2B2"/><stop offset="1" stop-color="#B2B2B2" stop-opacity="0"/></linearGradient><linearGradient id="c" x1="277.872" x2="194.87" y1="0" y2="235.867" gradientUnits="userSpaceOnUse"><stop stop-color="#B2B2B2"/><stop offset="1" stop-color="#B2B2B2" stop-opacity="0"/></linearGradient><linearGradient id="d" x1="277.872" x2="194.87" y1="0" y2="235.867" gradientUnits="userSpaceOnUse"><stop stop-color="#B2B2B2"/><stop offset="1" stop-color="#B2B2B2" stop-opacity="0"/></linearGradient><linearGradient id="e" x1="277.872" x2="194.87" y1="0" y2="235.867" gradientUnits="userSpaceOnUse"><stop stop-color="#B2B2B2"/><stop offset="1" stop-color="#B2B2B2" stop-opacity="0"/></linearGradient><linearGradient id="f" x1="277.872" x2="194.87" y1="0" y2="235.867" gradientUnits="userSpaceOnUse"><stop stop-color="#B2B2B2"/><stop offset="1" stop-color="#B2B2B2" stop-opacity="0"/></linearGradient><linearGradient id="g" x1="277.872" x2="194.87" y1="0" y2="235.867" gradientUnits="userSpaceOnUse"><stop stop-color="#B2B2B2"/><stop offset="1" stop-color="#B2B2B2" stop-opacity="0"/></linearGradient><linearGradient id="h" x1="277.872" x2="194.87" y1="0" y2="235.867" gradientUnits="userSpaceOnUse"><stop stop-color="#B2B2B2"/><stop offset="1" stop-color="#B2B2B2" stop-opacity="0"/></linearGradient><linearGradient id="i" x1="277.872" x2="194.87" y1="0" y2="235.867" gradientUnits="userSpaceOnUse"><stop stop-color="#B2B2B2"/><stop offset="1" stop-color="#B2B2B2" stop-opacity="0"/></linearGradient><linearGradient id="j" x1="277.872" x2="194.87" y1="0" y2="235.867" gradientUnits="userSpaceOnUse"><stop stop-color="#B2B2B2"/><stop offset="1" stop-color="#B2B2B2" stop-opacity="0"/></linearGradient><linearGradient id="k" x1="277.872" x2="194.87" y1="0" y2="235.867" gradientUnits="userSpaceOnUse"><stop stop-color="#B2B2B2"/><stop offset="1" stop-color="#B2B2B2" stop-opacity="0"/></linearGradient><linearGradient id="l" x1="277.872" x2="194.87" y1="0" y2="235.867" gradientUnits="userSpaceOnUse"><stop stop-color="#B2B2B2"/><stop offset="1" stop-color="#B2B2B2" stop-opacity="0"/></linearGradient><linearGradient id="m" x1="277.872" x2="194.87" y1="0" y2="235.867" gradientUnits="userSpaceOnUse"><stop stop-color="#B2B2B2"/><stop offset="1" stop-color="#B2B2B2" stop-opacity="0"/></linearGradient></defs></svg>